<svg width="134" height="148" viewBox="0 0 134 148" fill="none" xmlns="http://www.w3.org/2000/svg">
<path d="M0.352677 68.778C3.00124 30.7143 34.7137 0.656921 73.4506 0.656921C98.3967 0.656921 120.432 13.1218 133.666 32.163L94.03 59.6611C89.1553 51.8541 77.0399 33.7824 50.4292 34.2485C32.8664 34.5807 6.02919 47.6926 0.192277 75.7471C0.137711 73.4454 0.189652 71.1206 0.352677 68.778ZM94.03 88.2153C89.5069 94.723 81.9762 98.983 73.4506 98.983C65.1796 98.983 57.8479 94.9716 53.2872 88.7905C53.0087 102.451 55.6267 119.04 65.4415 129.834C72.8736 138.007 83.5619 141.711 97.2757 140.904C102.507 140.596 107.608 138.991 112.06 136.227C120.588 130.932 127.951 123.937 133.668 115.711L94.03 88.2153ZM45.1969 90.5395C44.8773 68.9607 53.1338 48.8936 73.4506 48.8936C73.8045 48.8936 74.1539 48.9118 74.5042 48.9263C36.8473 23.7236 -18.001 72.3797 13.9653 116.738C27.2697 135.201 48.9554 147.22 73.4506 147.22C75.6514 147.22 77.828 147.117 79.9794 146.927C81.7725 146.769 83.546 146.552 85.2983 146.277C46.9368 141.927 45.3386 100.108 45.1969 90.5395Z" fill="#F05656"/>
</svg>
