<svg width="199" height="137" viewBox="0 0 199 137" fill="none" xmlns="http://www.w3.org/2000/svg">
<path d="M0.138428 107.447C11.3467 110.503 30.4155 113.548 45.2251 113.12C47.4233 115.706 52.4958 120.574 60.8633 122.644C35.8181 104.541 24.676 75.7758 24.7837 49.8325C24.8682 29.5475 31.8301 10.9874 44.4019 0.597534C40.4341 47.0283 80.5608 102.455 116.564 102.268C133.243 102.182 142.93 90.7374 155.079 100.64C155.079 100.64 162.115 78.4666 142.344 71.4205C164.77 57.7305 183.97 33.3556 182.99 0.862549C193.169 10.1938 198.998 23.1427 198.998 39.9487C198.998 60.4985 186.448 136.691 73.6975 136.691C42.6489 136.691 13.9622 126.087 0.138428 107.447ZM147.833 88.3521C147.833 87.1112 146.827 86.1052 145.586 86.1052C144.345 86.1052 143.339 87.1112 143.339 88.3521C143.339 89.593 144.345 90.5989 145.586 90.5989C146.827 90.5989 147.833 89.593 147.833 88.3521Z" fill="#64FCF2"/>
</svg>
